<svg width="36" height="36" viewBox="0 0 36 36" fill="none" xmlns="http://www.w3.org/2000/svg">
<rect x="0.5" y="0.5" width="35" height="35" rx="17.5" stroke="#04CE78"/>
<path d="M25.4484 10.8845C25.7895 10.9775 26.0375 11.2566 26.0375 11.5977C26.0375 19.5662 19.5883 25.9844 11.6508 25.9844C11.2787 25.9844 10.9997 25.7673 10.9066 25.4263L10.1625 22.2017C10.1005 21.8606 10.2555 21.4885 10.5966 21.3335L14.0692 19.8452C14.3793 19.7212 14.7204 19.8142 14.9374 20.0623L16.4877 21.9536C18.9062 20.8064 20.8595 18.822 21.9757 16.4656L20.0844 14.9153C19.8363 14.6982 19.7433 14.3572 19.8673 14.0471L21.3556 10.5745C21.5106 10.2334 21.8827 10.0474 22.2238 10.1404L25.4484 10.8845Z" fill="white"/>
</svg>
