<svg width="37" height="36" viewBox="0 0 37 36" fill="none" xmlns="http://www.w3.org/2000/svg">
<rect x="1.17004" y="0.5" width="35" height="35" rx="17.5" stroke="#04CE78"/>
<path d="M26.4575 15.9688C26.5825 15.875 26.77 15.9688 26.77 16.125V22.5C26.77 23.3438 26.0825 24 25.27 24H12.27C11.4263 24 10.77 23.3438 10.77 22.5V16.125C10.77 15.9688 10.9263 15.875 11.0513 15.9688C11.77 16.5312 12.6763 17.2188 15.8638 19.5312C16.52 20 17.645 21.0312 18.77 21.0312C19.8638 21.0312 21.02 20 21.645 19.5312C24.8325 17.2188 25.7388 16.5312 26.4575 15.9688ZM18.77 20C18.02 20.0312 16.9888 19.0938 16.4575 18.7188C12.3013 15.7188 11.9888 15.4375 11.0513 14.6875C10.8638 14.5625 10.77 14.3438 10.77 14.0938V13.5C10.77 12.6875 11.4263 12 12.27 12H25.27C26.0825 12 26.77 12.6875 26.77 13.5V14.0938C26.77 14.3438 26.645 14.5625 26.4575 14.6875C25.52 15.4375 25.2075 15.7188 21.0513 18.7188C20.52 19.0938 19.4888 20.0312 18.77 20Z" fill="white"/>
</svg>
