<svg width="37" height="36" viewBox="0 0 37 36" fill="none" xmlns="http://www.w3.org/2000/svg">
<rect x="0.909912" y="0.5" width="35" height="35" rx="17.5" stroke="#04CE78"/>
<path d="M17.8849 25.6875C13.3224 19.125 12.5099 18.4375 12.5099 16C12.5099 12.6875 15.1662 10 18.5099 10C21.8224 10 24.5099 12.6875 24.5099 16C24.5099 18.4375 23.6662 19.125 19.1037 25.6875C18.8224 26.125 18.1662 26.125 17.8849 25.6875ZM18.5099 18.5C19.8849 18.5 21.0099 17.4062 21.0099 16C21.0099 14.625 19.8849 13.5 18.5099 13.5C17.1037 13.5 16.0099 14.625 16.0099 16C16.0099 17.4062 17.1037 18.5 18.5099 18.5Z" fill="white"/>
</svg>
