<svg width="15" height="13" viewBox="0 0 15 13" fill="none" xmlns="http://www.w3.org/2000/svg">
<path d="M13.5007 3.65625C13.5007 3.79297 13.5007 3.90234 13.5007 4.03906C13.5007 7.83984 10.6296 12.1875 5.35229 12.1875C3.71167 12.1875 2.20776 11.7227 0.949951 10.9023C1.1687 10.9297 1.38745 10.957 1.63354 10.957C2.97339 10.957 4.20386 10.4922 5.18823 9.72656C3.93042 9.69922 2.86401 8.87891 2.50854 7.73047C2.69995 7.75781 2.86401 7.78516 3.05542 7.78516C3.30151 7.78516 3.57495 7.73047 3.7937 7.67578C2.4812 7.40234 1.49683 6.25391 1.49683 4.85938V4.83203C1.87964 5.05078 2.34448 5.16016 2.80933 5.1875C2.01636 4.66797 1.52417 3.79297 1.52417 2.80859C1.52417 2.26172 1.66089 1.76953 1.90698 1.35938C3.32886 3.08203 5.46167 4.23047 7.84058 4.36719C7.78589 4.14844 7.75854 3.92969 7.75854 3.71094C7.75854 2.125 9.0437 0.839844 10.6296 0.839844C11.45 0.839844 12.1882 1.16797 12.7351 1.74219C13.364 1.60547 13.9929 1.35938 14.5398 1.03125C14.321 1.71484 13.8835 2.26172 13.282 2.61719C13.8562 2.5625 14.4304 2.39844 14.9226 2.17969C14.5398 2.75391 14.0476 3.24609 13.5007 3.65625Z" fill="white"/>
</svg>
