<svg width="13" height="13" viewBox="0 0 13 13" fill="none" xmlns="http://www.w3.org/2000/svg">
<path d="M2.95435 12.75H0.411377V4.57422H2.95435V12.75ZM1.66919 3.48047C0.876221 3.48047 0.219971 2.79688 0.219971 1.97656C0.219971 1.18359 0.876221 0.527344 1.66919 0.527344C2.4895 0.527344 3.14575 1.18359 3.14575 1.97656C3.14575 2.79688 2.4895 3.48047 1.66919 3.48047ZM12.4426 12.75H9.927V8.78516C9.927 7.82812 9.89966 6.625 8.58716 6.625C7.27466 6.625 7.08325 7.63672 7.08325 8.70312V12.75H4.54028V4.57422H6.97388V5.69531H7.00122C7.35669 5.06641 8.177 4.38281 9.40747 4.38281C11.9778 4.38281 12.47 6.07812 12.47 8.26562V12.75H12.4426Z" fill="white"/>
</svg>
