<svg width="13" height="13" viewBox="0 0 13 13" fill="none" xmlns="http://www.w3.org/2000/svg">
<path d="M6.85498 3.35547C8.57764 3.35547 9.99951 4.77734 9.99951 6.5C9.99951 8.25 8.57764 9.64453 6.85498 9.64453C5.10498 9.64453 3.71045 8.25 3.71045 6.5C3.71045 4.77734 5.10498 3.35547 6.85498 3.35547ZM6.85498 8.55078C7.97607 8.55078 8.87842 7.64844 8.87842 6.5C8.87842 5.37891 7.97607 4.47656 6.85498 4.47656C5.70654 4.47656 4.8042 5.37891 4.8042 6.5C4.8042 7.64844 5.73389 8.55078 6.85498 8.55078ZM10.8472 3.24609C10.8472 3.65625 10.519 3.98438 10.1089 3.98438C9.69873 3.98438 9.37061 3.65625 9.37061 3.24609C9.37061 2.83594 9.69873 2.50781 10.1089 2.50781C10.519 2.50781 10.8472 2.83594 10.8472 3.24609ZM12.9253 3.98438C12.98 4.99609 12.98 8.03125 12.9253 9.04297C12.8706 10.0273 12.6519 10.875 11.9409 11.6133C11.23 12.3242 10.355 12.543 9.37061 12.5977C8.35889 12.6523 5.32373 12.6523 4.31201 12.5977C3.32764 12.543 2.47998 12.3242 1.7417 11.6133C1.03076 10.875 0.812012 10.0273 0.757324 9.04297C0.702637 8.03125 0.702637 4.99609 0.757324 3.98438C0.812012 3 1.03076 2.125 1.7417 1.41406C2.47998 0.703125 3.32764 0.484375 4.31201 0.429688C5.32373 0.375 8.35889 0.375 9.37061 0.429688C10.355 0.484375 11.23 0.703125 11.9409 1.41406C12.6519 2.125 12.8706 3 12.9253 3.98438ZM11.6128 10.1094C11.9409 9.31641 11.8589 7.40234 11.8589 6.5C11.8589 5.625 11.9409 3.71094 11.6128 2.89062C11.394 2.37109 10.9839 1.93359 10.4644 1.74219C9.64404 1.41406 7.72998 1.49609 6.85498 1.49609C5.95264 1.49609 4.03857 1.41406 3.24561 1.74219C2.69873 1.96094 2.28857 2.37109 2.06982 2.89062C1.7417 3.71094 1.82373 5.625 1.82373 6.5C1.82373 7.40234 1.7417 9.31641 2.06982 10.1094C2.28857 10.6562 2.69873 11.0664 3.24561 11.2852C4.03857 11.6133 5.95264 11.5312 6.85498 11.5312C7.72998 11.5312 9.64404 11.6133 10.4644 11.2852C10.9839 11.0664 11.4214 10.6562 11.6128 10.1094Z" fill="white"/>
</svg>
