<svg width="16" height="11" viewBox="0 0 16 11" fill="none" xmlns="http://www.w3.org/2000/svg">
<path d="M15.2617 1.91797C15.5898 3.06641 15.5898 5.52734 15.5898 5.52734C15.5898 5.52734 15.5898 7.96094 15.2617 9.13672C15.0977 9.79297 14.5781 10.2852 13.9492 10.4492C12.7734 10.75 8.125 10.75 8.125 10.75C8.125 10.75 3.44922 10.75 2.27344 10.4492C1.64453 10.2852 1.125 9.79297 0.960938 9.13672C0.632812 7.96094 0.632812 5.52734 0.632812 5.52734C0.632812 5.52734 0.632812 3.06641 0.960938 1.91797C1.125 1.26172 1.64453 0.742188 2.27344 0.578125C3.44922 0.25 8.125 0.25 8.125 0.25C8.125 0.25 12.7734 0.25 13.9492 0.578125C14.5781 0.742188 15.0977 1.26172 15.2617 1.91797ZM6.59375 7.74219L10.4766 5.52734L6.59375 3.3125V7.74219Z" fill="white"/>
</svg>
