<svg width="202" height="63" viewBox="0 0 202 63" fill="none" xmlns="http://www.w3.org/2000/svg">
<g id="logo-footer.svg" clip-path="url(#clip0_5_322)">
<path id="Vector" d="M65.912 54.0497V45.6497H67.292V54.0497H65.912ZM71.252 54.0497V45.6497H72.632V54.0497H71.252ZM66.86 50.3297V49.0697H71.552V50.3297H66.86ZM80.071 54.1697C79.495 54.1697 78.975 54.0417 78.511 53.7857C78.055 53.5217 77.691 53.1617 77.419 52.7057C77.155 52.2497 77.023 51.7377 77.023 51.1697C77.023 50.6017 77.155 50.0937 77.419 49.6457C77.683 49.1897 78.039 48.8297 78.487 48.5657C78.943 48.3017 79.447 48.1697 79.999 48.1697C80.535 48.1697 81.007 48.2937 81.415 48.5417C81.831 48.7897 82.155 49.1297 82.387 49.5617C82.627 49.9937 82.747 50.4857 82.747 51.0377C82.747 51.1337 82.739 51.2337 82.723 51.3377C82.715 51.4337 82.699 51.5417 82.675 51.6617H77.947V50.5817H81.991L81.499 51.0137C81.483 50.6617 81.415 50.3657 81.295 50.1257C81.175 49.8857 81.003 49.7017 80.779 49.5737C80.563 49.4457 80.295 49.3817 79.975 49.3817C79.639 49.3817 79.347 49.4537 79.099 49.5977C78.851 49.7417 78.659 49.9457 78.523 50.2097C78.387 50.4657 78.319 50.7737 78.319 51.1337C78.319 51.4937 78.391 51.8097 78.535 52.0817C78.679 52.3537 78.883 52.5657 79.147 52.7177C79.411 52.8617 79.715 52.9337 80.059 52.9337C80.355 52.9337 80.627 52.8817 80.875 52.7777C81.131 52.6737 81.347 52.5217 81.523 52.3217L82.363 53.1737C82.083 53.5017 81.743 53.7497 81.343 53.9177C80.943 54.0857 80.519 54.1697 80.071 54.1697ZM89.3371 54.1697C88.8171 54.1697 88.3451 54.0377 87.9211 53.7737C87.5051 53.5097 87.1731 53.1537 86.9251 52.7057C86.6851 52.2497 86.5651 51.7417 86.5651 51.1817C86.5651 50.6137 86.6851 50.1057 86.9251 49.6577C87.1731 49.2017 87.5051 48.8417 87.9211 48.5777C88.3451 48.3057 88.8171 48.1697 89.3371 48.1697C89.7771 48.1697 90.1651 48.2657 90.5011 48.4577C90.8451 48.6417 91.1171 48.8977 91.3171 49.2257C91.5171 49.5537 91.6171 49.9257 91.6171 50.3417V51.9977C91.6171 52.4137 91.5171 52.7857 91.3171 53.1137C91.1251 53.4417 90.8571 53.7017 90.5131 53.8937C90.1691 54.0777 89.7771 54.1697 89.3371 54.1697ZM89.5531 52.9217C90.0411 52.9217 90.4331 52.7577 90.7291 52.4297C91.0331 52.1017 91.1851 51.6817 91.1851 51.1697C91.1851 50.8257 91.1171 50.5217 90.9811 50.2577C90.8451 49.9937 90.6531 49.7897 90.4051 49.6457C90.1651 49.4937 89.8811 49.4177 89.5531 49.4177C89.2331 49.4177 88.9491 49.4937 88.7011 49.6457C88.4611 49.7897 88.2691 49.9937 88.1251 50.2577C87.9891 50.5217 87.9211 50.8257 87.9211 51.1697C87.9211 51.5137 87.9891 51.8177 88.1251 52.0817C88.2691 52.3457 88.4611 52.5537 88.7011 52.7057C88.9491 52.8497 89.2331 52.9217 89.5531 52.9217ZM91.1011 54.0497V52.5017L91.3291 51.0977L91.1011 49.7057V48.2897H92.4211V54.0497H91.1011ZM97.0061 54.0497V45.4097H98.3261V54.0497H97.0061ZM103.791 54.0497V45.8897H105.111V54.0497H103.791ZM102.411 49.4897V48.2897H106.491V49.4897H102.411ZM114.518 54.0497V50.7257C114.518 50.3417 114.394 50.0257 114.146 49.7777C113.906 49.5297 113.594 49.4057 113.21 49.4057C112.954 49.4057 112.726 49.4617 112.526 49.5737C112.326 49.6857 112.17 49.8417 112.058 50.0417C111.946 50.2417 111.89 50.4697 111.89 50.7257L111.374 50.4377C111.374 49.9977 111.47 49.6097 111.662 49.2737C111.854 48.9297 112.118 48.6617 112.454 48.4697C112.798 48.2697 113.182 48.1697 113.606 48.1697C114.038 48.1697 114.422 48.2657 114.758 48.4577C115.094 48.6497 115.358 48.9177 115.55 49.2617C115.742 49.5977 115.838 49.9897 115.838 50.4377V54.0497H114.518ZM110.57 54.0497V45.4097H111.89V54.0497H110.57ZM131.414 54.0497L127.43 49.6937C127.134 49.3657 126.91 49.0537 126.758 48.7577C126.614 48.4617 126.542 48.1337 126.542 47.7737C126.542 47.3497 126.646 46.9697 126.854 46.6337C127.062 46.2897 127.346 46.0177 127.706 45.8177C128.066 45.6177 128.478 45.5177 128.942 45.5177C129.294 45.5177 129.614 45.5777 129.902 45.6977C130.19 45.8097 130.442 45.9617 130.658 46.1537C130.882 46.3377 131.066 46.5417 131.21 46.7657L130.262 47.6057C130.086 47.3657 129.894 47.1697 129.686 47.0177C129.486 46.8657 129.238 46.7897 128.942 46.7897C128.638 46.7897 128.382 46.8817 128.174 47.0657C127.966 47.2417 127.862 47.4657 127.862 47.7377C127.862 48.0097 127.918 48.2337 128.03 48.4097C128.142 48.5857 128.298 48.7897 128.498 49.0217L132.998 54.0497H131.414ZM128.546 54.1697C127.97 54.1697 127.466 54.0617 127.034 53.8457C126.61 53.6217 126.278 53.3177 126.038 52.9337C125.806 52.5417 125.69 52.0977 125.69 51.6017C125.69 51.0977 125.826 50.6457 126.098 50.2457C126.378 49.8457 126.786 49.5217 127.322 49.2737L127.934 50.0777C127.638 50.2377 127.41 50.4377 127.25 50.6777C127.09 50.9097 127.01 51.2057 127.01 51.5657C127.01 51.8537 127.074 52.0977 127.202 52.2977C127.338 52.4977 127.526 52.6537 127.766 52.7657C128.006 52.8697 128.282 52.9217 128.594 52.9217C129.002 52.9217 129.338 52.8377 129.602 52.6697C129.874 52.5017 130.078 52.3017 130.214 52.0697L131.078 53.0777C130.91 53.2857 130.694 53.4737 130.43 53.6417C130.166 53.8017 129.874 53.9297 129.554 54.0257C129.234 54.1217 128.898 54.1697 128.546 54.1697ZM142.215 54.0497V45.6497H143.175L146.667 51.3977H146.043L149.535 45.6497H150.495V54.0497H149.115V48.0737L149.427 48.1577L146.835 52.4177H145.875L143.283 48.1577L143.595 48.0737V54.0497H142.215ZM157.932 54.1697C157.356 54.1697 156.836 54.0417 156.372 53.7857C155.916 53.5217 155.552 53.1617 155.28 52.7057C155.016 52.2497 154.884 51.7377 154.884 51.1697C154.884 50.6017 155.016 50.0937 155.28 49.6457C155.544 49.1897 155.9 48.8297 156.348 48.5657C156.804 48.3017 157.308 48.1697 157.86 48.1697C158.396 48.1697 158.868 48.2937 159.276 48.5417C159.692 48.7897 160.016 49.1297 160.248 49.5617C160.488 49.9937 160.608 50.4857 160.608 51.0377C160.608 51.1337 160.6 51.2337 160.584 51.3377C160.576 51.4337 160.56 51.5417 160.536 51.6617H155.808V50.5817H159.852L159.36 51.0137C159.344 50.6617 159.276 50.3657 159.156 50.1257C159.036 49.8857 158.864 49.7017 158.64 49.5737C158.424 49.4457 158.156 49.3817 157.836 49.3817C157.5 49.3817 157.208 49.4537 156.96 49.5977C156.712 49.7417 156.52 49.9457 156.384 50.2097C156.248 50.4657 156.18 50.7737 156.18 51.1337C156.18 51.4937 156.252 51.8097 156.396 52.0817C156.54 52.3537 156.744 52.5657 157.008 52.7177C157.272 52.8617 157.576 52.9337 157.92 52.9337C158.216 52.9337 158.488 52.8817 158.736 52.7777C158.992 52.6737 159.208 52.5217 159.384 52.3217L160.224 53.1737C159.944 53.5017 159.604 53.7497 159.204 53.9177C158.804 54.0857 158.38 54.1697 157.932 54.1697ZM167.198 54.1697C166.678 54.1697 166.206 54.0377 165.782 53.7737C165.366 53.5097 165.034 53.1537 164.786 52.7057C164.546 52.2497 164.426 51.7417 164.426 51.1817C164.426 50.6137 164.546 50.1057 164.786 49.6577C165.034 49.2017 165.366 48.8417 165.782 48.5777C166.206 48.3057 166.678 48.1697 167.198 48.1697C167.638 48.1697 168.026 48.2657 168.362 48.4577C168.706 48.6417 168.978 48.8977 169.178 49.2257C169.378 49.5537 169.478 49.9257 169.478 50.3417V51.9977C169.478 52.4137 169.378 52.7857 169.178 53.1137C168.986 53.4417 168.718 53.7017 168.374 53.8937C168.03 54.0777 167.638 54.1697 167.198 54.1697ZM167.414 52.9217C167.742 52.9217 168.026 52.8497 168.266 52.7057C168.514 52.5537 168.706 52.3457 168.842 52.0817C168.978 51.8177 169.046 51.5137 169.046 51.1697C169.046 50.8257 168.978 50.5217 168.842 50.2577C168.706 49.9937 168.514 49.7897 168.266 49.6457C168.026 49.4937 167.742 49.4177 167.414 49.4177C167.094 49.4177 166.81 49.4937 166.562 49.6457C166.322 49.7897 166.13 49.9937 165.986 50.2577C165.85 50.5217 165.782 50.8257 165.782 51.1697C165.782 51.5137 165.85 51.8177 165.986 52.0817C166.13 52.3457 166.322 52.5537 166.562 52.7057C166.81 52.8497 167.094 52.9217 167.414 52.9217ZM170.282 54.0497H168.962V52.5017L169.19 51.0977L168.962 49.7057V45.4097H170.282V54.0497ZM174.879 54.0497V48.2897H176.199V54.0497H174.879ZM175.539 47.2337C175.315 47.2337 175.127 47.1577 174.975 47.0057C174.831 46.8537 174.759 46.6657 174.759 46.4417C174.759 46.2177 174.831 46.0297 174.975 45.8777C175.127 45.7257 175.315 45.6497 175.539 45.6497C175.771 45.6497 175.959 45.7257 176.103 45.8777C176.247 46.0297 176.319 46.2177 176.319 46.4417C176.319 46.6657 176.247 46.8537 176.103 47.0057C175.959 47.1577 175.771 47.2337 175.539 47.2337ZM183.452 54.1697C182.884 54.1697 182.368 54.0377 181.904 53.7737C181.448 53.5097 181.088 53.1497 180.824 52.6937C180.56 52.2377 180.428 51.7297 180.428 51.1697C180.428 50.6017 180.56 50.0937 180.824 49.6457C181.088 49.1897 181.448 48.8297 181.904 48.5657C182.368 48.3017 182.884 48.1697 183.452 48.1697C183.9 48.1697 184.316 48.2577 184.7 48.4337C185.092 48.6017 185.424 48.8457 185.696 49.1657L184.832 50.0417C184.664 49.8417 184.46 49.6937 184.22 49.5977C183.988 49.4937 183.732 49.4417 183.452 49.4417C183.124 49.4417 182.832 49.5177 182.576 49.6697C182.328 49.8137 182.132 50.0137 181.988 50.2697C181.852 50.5257 181.784 50.8257 181.784 51.1697C181.784 51.5057 181.852 51.8057 181.988 52.0697C182.132 52.3257 182.328 52.5297 182.576 52.6817C182.832 52.8257 183.124 52.8977 183.452 52.8977C183.732 52.8977 183.988 52.8497 184.22 52.7537C184.46 52.6497 184.664 52.4977 184.832 52.2977L185.696 53.1737C185.424 53.4937 185.092 53.7417 184.7 53.9177C184.316 54.0857 183.9 54.1697 183.452 54.1697ZM192.062 54.1697C191.542 54.1697 191.07 54.0377 190.646 53.7737C190.23 53.5097 189.898 53.1537 189.65 52.7057C189.41 52.2497 189.29 51.7417 189.29 51.1817C189.29 50.6137 189.41 50.1057 189.65 49.6577C189.898 49.2017 190.23 48.8417 190.646 48.5777C191.07 48.3057 191.542 48.1697 192.062 48.1697C192.502 48.1697 192.89 48.2657 193.226 48.4577C193.57 48.6417 193.842 48.8977 194.042 49.2257C194.242 49.5537 194.342 49.9257 194.342 50.3417V51.9977C194.342 52.4137 194.242 52.7857 194.042 53.1137C193.85 53.4417 193.582 53.7017 193.238 53.8937C192.894 54.0777 192.502 54.1697 192.062 54.1697ZM192.278 52.9217C192.766 52.9217 193.158 52.7577 193.454 52.4297C193.758 52.1017 193.91 51.6817 193.91 51.1697C193.91 50.8257 193.842 50.5217 193.706 50.2577C193.57 49.9937 193.378 49.7897 193.13 49.6457C192.89 49.4937 192.606 49.4177 192.278 49.4177C191.958 49.4177 191.674 49.4937 191.426 49.6457C191.186 49.7897 190.994 49.9937 190.85 50.2577C190.714 50.5217 190.646 50.8257 190.646 51.1697C190.646 51.5137 190.714 51.8177 190.85 52.0817C190.994 52.3457 191.186 52.5537 191.426 52.7057C191.674 52.8497 191.958 52.9217 192.278 52.9217ZM193.826 54.0497V52.5017L194.054 51.0977L193.826 49.7057V48.2897H195.146V54.0497H193.826ZM199.731 54.0497V45.4097H201.051V54.0497H199.731Z" fill="#04CE78"/>
<path id="Vector_2" d="M67.72 37.0498V8.80977H72.2L83.32 26.1298H81.04L92.12 8.80977H96.64V37.0498H90.36V19.4098L91.48 19.6898L84.24 30.9698H80.08L72.88 19.6898L73.96 19.4098V37.0498H67.72ZM111.096 37.4898C108.989 37.4898 107.109 37.0631 105.456 36.2098C103.829 35.3298 102.549 34.1165 101.616 32.5698C100.683 31.0231 100.216 29.2765 100.216 27.3298C100.216 25.3831 100.669 23.6498 101.576 22.1298C102.509 20.5831 103.763 19.3698 105.336 18.4898C106.909 17.6098 108.683 17.1698 110.656 17.1698C112.576 17.1698 114.269 17.5831 115.736 18.4098C117.203 19.2365 118.349 20.3831 119.176 21.8498C120.029 23.3165 120.456 24.9965 120.456 26.8898C120.456 27.2365 120.429 27.6098 120.376 28.0098C120.349 28.3831 120.283 28.8231 120.176 29.3298L103.416 29.3698V25.1698L117.576 25.1298L114.936 26.8898C114.909 25.7698 114.736 24.8498 114.416 24.1298C114.096 23.3831 113.616 22.8231 112.976 22.4498C112.363 22.0498 111.603 21.8498 110.696 21.8498C109.736 21.8498 108.896 22.0765 108.176 22.5298C107.483 22.9565 106.936 23.5698 106.536 24.3698C106.163 25.1698 105.976 26.1431 105.976 27.2898C105.976 28.4365 106.176 29.4231 106.576 30.2498C107.003 31.0498 107.589 31.6765 108.336 32.1298C109.109 32.5565 110.016 32.7698 111.056 32.7698C112.016 32.7698 112.883 32.6098 113.656 32.2898C114.429 31.9431 115.109 31.4365 115.696 30.7698L119.056 34.1298C118.096 35.2498 116.936 36.0898 115.576 36.6498C114.216 37.2098 112.723 37.4898 111.096 37.4898ZM131.69 37.4498C129.85 37.4498 128.21 37.0098 126.77 36.1298C125.357 35.2498 124.237 34.0498 123.41 32.5298C122.61 31.0098 122.21 29.2765 122.21 27.3298C122.21 25.3831 122.61 23.6498 123.41 22.1298C124.237 20.6098 125.357 19.4098 126.77 18.5298C128.21 17.6498 129.85 17.2098 131.69 17.2098C133.023 17.2098 134.223 17.4631 135.29 17.9698C136.383 18.4765 137.277 19.1831 137.97 20.0898C138.69 20.9698 139.09 21.9831 139.17 23.1298V31.3298C139.09 32.4765 138.703 33.5165 138.01 34.4498C137.317 35.3565 136.423 36.0898 135.33 36.6498C134.237 37.1831 133.023 37.4498 131.69 37.4498ZM132.77 31.9298C133.65 31.9298 134.41 31.7431 135.05 31.3698C135.69 30.9698 136.197 30.4231 136.57 29.7298C136.943 29.0365 137.13 28.2365 137.13 27.3298C137.13 26.4231 136.943 25.6365 136.57 24.9698C136.223 24.2765 135.717 23.7298 135.05 23.3298C134.41 22.9298 133.663 22.7298 132.81 22.7298C131.957 22.7298 131.197 22.9298 130.53 23.3298C129.89 23.7298 129.37 24.2765 128.97 24.9698C128.597 25.6631 128.41 26.4498 128.41 27.3298C128.41 28.2098 128.597 28.9965 128.97 29.6898C129.343 30.3831 129.863 30.9298 130.53 31.3298C131.197 31.7298 131.943 31.9298 132.77 31.9298ZM142.89 37.0498H136.89V31.8098L137.81 27.0898L136.77 22.3698V8.00977H142.89V37.0498ZM147.199 37.0498V17.6098H153.319V37.0498H147.199ZM150.279 14.9298C149.319 14.9298 148.519 14.6098 147.879 13.9698C147.266 13.3031 146.959 12.5031 146.959 11.5698C146.959 10.6098 147.266 9.80977 147.879 9.16977C148.519 8.52977 149.319 8.20977 150.279 8.20977C151.239 8.20977 152.026 8.52977 152.639 9.16977C153.252 9.80977 153.559 10.6098 153.559 11.5698C153.559 12.5031 153.252 13.3031 152.639 13.9698C152.026 14.6098 151.239 14.9298 150.279 14.9298ZM165.749 37.4498C163.962 37.4498 162.362 37.0098 160.949 36.1298C159.562 35.2498 158.455 34.0498 157.629 32.5298C156.829 31.0098 156.429 29.2765 156.429 27.3298C156.429 25.3831 156.829 23.6498 157.629 22.1298C158.455 20.6098 159.562 19.4098 160.949 18.5298C162.362 17.6498 163.962 17.2098 165.749 17.2098C167.055 17.2098 168.229 17.4631 169.269 17.9698C170.335 18.4765 171.202 19.1831 171.869 20.0898C172.535 20.9698 172.909 21.9831 172.989 23.1298V31.5298C172.909 32.6765 172.535 33.7031 171.869 34.6098C171.229 35.4898 170.375 36.1831 169.309 36.6898C168.242 37.1965 167.055 37.4498 165.749 37.4498ZM166.989 31.9298C168.295 31.9298 169.349 31.5031 170.149 30.6498C170.949 29.7698 171.349 28.6631 171.349 27.3298C171.349 26.4231 171.162 25.6231 170.789 24.9298C170.442 24.2365 169.935 23.7031 169.269 23.3298C168.629 22.9298 167.882 22.7298 167.029 22.7298C166.175 22.7298 165.415 22.9298 164.749 23.3298C164.109 23.7031 163.589 24.2365 163.189 24.9298C162.815 25.6231 162.629 26.4231 162.629 27.3298C162.629 28.2098 162.815 28.9965 163.189 29.6898C163.562 30.3831 164.082 30.9298 164.749 31.3298C165.415 31.7298 166.162 31.9298 166.989 31.9298ZM171.109 37.0498V31.8098L172.029 27.0898L171.109 22.3698V17.6098H177.109V37.0498H171.109ZM193.458 37.0498L188.778 29.4898L187.458 28.6498L179.818 17.6098H186.978L191.338 24.6898L192.618 25.4898L200.538 37.0498H193.458ZM179.458 37.0498L187.418 25.7298L190.898 29.6498L186.138 37.0498H179.458ZM192.578 28.6098L189.098 24.6898L193.498 17.6098H200.138L192.578 28.6098Z" fill="white"/>
<path id="Vector_3" d="M18.041 16.0273V22.7359H20.3387V18.3067C19.5378 17.5935 18.7819 16.8253 18.041 16.0273Z" fill="#04CE78"/>
<path id="Vector_4" d="M39.5264 17.8776V22.7357H41.9592V15.5283C41.1583 16.3214 40.3473 17.1095 39.5264 17.8776Z" fill="#04CE78"/>
<path id="Vector_5" d="M39.5261 41.7197V50.4733H39.5161C39.3359 55.551 35.136 59.631 30 59.631C24.859 59.631 20.6591 55.5559 20.4839 50.4733H20.4739V41.7197H18.041V50.1342C18.041 56.7031 23.4073 62.0501 30 62.0501C36.5927 62.0501 41.9589 56.7031 41.9589 50.1342V41.7197H39.5261Z" fill="#04CE78"/>
<path id="Vector_6" d="M20.4739 41.7197H13.8512V41.6549H11.9589C6.70782 41.6549 2.43283 37.3953 2.43283 32.163C2.43283 26.9308 6.70782 22.6712 11.9589 22.6712H20.3387V20.2471H11.9589C5.36625 20.2471 0 25.594 0 32.163C0 38.732 5.36625 44.079 11.9589 44.079H20.4739V41.7197Z" fill="#04CE78"/>
<path id="Vector_7" d="M48.0413 20.2471H39.5264V22.6712H48.0413C53.2924 22.6712 57.5674 26.9308 57.5674 32.163C57.5674 37.3953 53.2924 41.6549 48.0413 41.6549H44.9327V41.7197H39.5264V44.074H48.0413C54.634 44.074 60.0003 38.727 60.0003 32.158C60.0003 25.589 54.634 20.2471 48.0413 20.2471Z" fill="#04CE78"/>
<path id="Vector_8" d="M18.987 51.1461C14.9623 51.1461 11.6885 47.8841 11.6885 43.8738C11.6885 39.8636 14.9623 36.6016 18.987 36.6016C23.0117 36.6016 26.2855 39.8636 26.2855 43.8738C26.2855 47.8841 23.0117 51.1461 18.987 51.1461ZM18.987 39.0256C16.3039 39.0256 14.1213 41.2003 14.1213 43.8738C14.1213 46.5473 16.3039 48.722 18.987 48.722C21.6701 48.722 23.8527 46.5473 23.8527 43.8738C23.8527 41.2003 21.6701 39.0256 18.987 39.0256Z" fill="white"/>
<path id="Vector_9" d="M22.6726 47.6841C24.7839 45.5805 24.7839 42.1697 22.6726 40.066C20.5613 37.9624 17.1383 37.9624 15.027 40.066C12.9157 42.1697 12.9157 45.5805 15.027 47.6842C17.1383 49.7878 20.5613 49.7878 22.6726 47.6841Z" fill="white"/>
<path id="Vector_10" d="M18.987 51.1461C14.9623 51.1461 11.6885 47.8841 11.6885 43.8738C11.6885 39.8636 14.9623 36.6016 18.987 36.6016C23.0117 36.6016 26.2855 39.8636 26.2855 43.8738C26.2855 47.8841 23.0117 51.1461 18.987 51.1461ZM18.987 39.0256C16.3039 39.0256 14.1213 41.2003 14.1213 43.8738C14.1213 46.5473 16.3039 48.722 18.987 48.722C21.6701 48.722 23.8527 46.5473 23.8527 43.8738C23.8527 41.2003 21.6701 39.0256 18.987 39.0256Z" fill="#04CE78"/>
<path id="Vector_11" d="M30.3701 21.5234V35.0155C30.3701 39.1604 33.3085 42.5272 37.4684 42.5272L47.6353 42.6619" stroke="#04CE78" stroke-width="2.6" stroke-miterlimit="10" stroke-linecap="round" stroke-linejoin="round"/>
<path id="Vector_12" d="M27.747 2.38545L26.2903 2.29068C20.0831 1.87669 16.544 9.46319 21.0442 13.7378C21.1644 13.8525 21.2945 13.9672 21.4247 14.0769L29.7994 21.6585" stroke="#04CE78" stroke-width="3" stroke-miterlimit="10" stroke-linecap="round" stroke-linejoin="round"/>
<path id="Vector_13" d="M33.2233 2.16084L34.68 2.06607C40.8872 1.65208 44.4264 9.23858 39.9261 13.5132C39.806 13.6279 39.6758 13.7426 39.5457 13.8523L31.1709 21.4338" stroke="#04CE78" stroke-width="3" stroke-miterlimit="10" stroke-linecap="round" stroke-linejoin="round"/>
</g>
<defs>
<clipPath id="clip0_5_322">
<rect width="202" height="62" fill="white" transform="translate(0 0.0498047)"/>
</clipPath>
</defs>
</svg>
