<svg width="60" height="61" viewBox="0 0 60 61" fill="none" xmlns="http://www.w3.org/2000/svg">
<g clip-path="url(#clip0_5_33)">
<g clip-path="url(#clip1_5_33)">
<mask id="mask0_5_33" style="mask-type:luminance" maskUnits="userSpaceOnUse" x="0" y="0" width="60" height="61">
<path d="M60 0.909912H0V60.9099H60V0.909912Z" fill="white"/>
</mask>
<g mask="url(#mask0_5_33)">
<path fill-rule="evenodd" clip-rule="evenodd" d="M53.6484 58.2146C53.6484 58.6599 53.2853 59.0232 52.8399 59.0232H31.7812L39.668 46.3083L42.1172 46.3669C42.7031 46.3904 43.1484 45.863 43.0664 45.2888L42.0117 38.8318L43.9688 39.406C43.9805 39.5818 43.9922 47.0935 43.9922 47.0935C41.625 47.5505 39.8321 49.6365 39.8321 52.1326C39.8321 54.9568 42.129 57.2654 44.9649 57.2654C47.7892 57.2654 50.0977 54.9685 50.0977 52.1326C50.0977 49.613 48.2695 47.5036 45.8672 47.0818V39.9685L53.0742 42.0779C53.4375 42.1833 53.6602 42.4763 53.6602 42.8513V58.2146H53.6484Z" fill="white"/>
<path fill-rule="evenodd" clip-rule="evenodd" d="M24.9258 39.7341C26.2734 40.9763 28.0664 41.7146 30 41.7146C31.9336 41.7146 33.7266 40.9763 35.0742 39.7341L30 56.6912L24.9258 39.7341Z" fill="#1F5FFF"/>
<path fill-rule="evenodd" clip-rule="evenodd" d="M7.14844 59.0232C6.70313 59.0232 6.33984 58.6599 6.33984 58.2146V42.8396C6.33984 42.4646 6.5625 42.1716 6.91406 42.0662L14.1211 39.9568V47.1872C12.2578 47.5974 10.8633 49.2615 10.8633 51.2537V56.4802C10.8633 56.9958 11.2852 57.4177 11.8008 57.4177H13.0312C14.2617 57.4177 14.2617 55.5427 13.0312 55.5427H12.7383V51.2419C12.7383 49.9763 13.7695 48.9568 15.0234 48.9568C16.2891 48.9568 17.3203 49.988 17.3203 51.2419V55.5427H16.957C15.7266 55.5427 15.7266 57.4177 16.957 57.4177H18.2578C18.7734 57.4177 19.1953 56.9958 19.1953 56.4802V51.2537C19.1953 49.2966 17.8359 47.6443 16.0078 47.2107C16.0078 44.7146 15.8672 41.8552 16.0313 39.406L18 38.8318L16.9336 45.2888C16.8867 45.5583 16.9687 45.8396 17.1562 46.0505C17.3437 46.2615 17.6016 46.3786 17.8828 46.3669L20.332 46.3083L28.2305 59.0232H7.14844Z" fill="white"/>
<path fill-rule="evenodd" clip-rule="evenodd" d="M27.1758 53.7967L21.6328 44.8788C21.457 44.5975 21.1523 44.4334 20.8125 44.4334L18.9609 44.4803L19.9922 38.2459L22.3125 37.5662L27.1758 53.7967Z" fill="#04CE78"/>
<path fill-rule="evenodd" clip-rule="evenodd" d="M20.6367 20.7615V17.9256L23.918 13.7654C24.1523 13.4607 24.5391 13.367 24.8789 13.5193C28.6875 15.2068 34.3125 14.7615 39.2812 14.3631L39.3516 20.7732C39.3516 25.9295 35.1562 30.1365 29.9883 30.1365C24.8437 30.1131 20.6367 25.9177 20.6367 20.7615Z" fill="#FECEA4"/>
<path fill-rule="evenodd" clip-rule="evenodd" d="M19.3242 8.1053C19.9687 7.23811 20.9531 6.7928 22.1132 6.7928C22.582 6.7928 23.0742 6.86311 23.5781 7.01545C24.5624 7.2967 25.1367 6.71077 25.4414 6.39436C29.0039 2.83186 35.4492 1.09749 39.3164 5.07014C41.6835 7.49592 42.7734 11.7615 41.1796 15.4412L41.1562 13.3553C41.1562 13.0975 41.039 12.8514 40.8515 12.6756C40.664 12.4998 40.4062 12.4178 40.1484 12.4295C36.0117 12.7576 29.4257 13.4959 25.6523 11.8201C24.5156 11.3162 23.2382 11.6326 22.4648 12.617L19.8398 15.9568C17.8945 12.2654 18.2929 9.46467 19.3242 8.1053Z" fill="#7C7C7C"/>
<path fill-rule="evenodd" clip-rule="evenodd" d="M17.9414 21.4296V19.6131C17.9414 19.1444 18.4453 19.203 18.7617 19.203C18.7617 19.203 18.7852 21.4881 18.8086 21.8397C18.4922 21.8397 17.9414 21.91 17.9414 21.4296Z" fill="#FECEA4"/>
<path fill-rule="evenodd" clip-rule="evenodd" d="M42 21.4295C42 21.8983 41.5078 21.8397 41.1914 21.8397C41.2266 21.4881 41.2266 19.203 41.2266 19.203C41.5312 19.203 42 19.1561 42 19.6131V21.4295Z" fill="#FECEA4"/>
<path fill-rule="evenodd" clip-rule="evenodd" d="M41.0391 44.4685L39.1875 44.4216C38.8594 44.4099 38.543 44.5857 38.3672 44.8669L32.8359 53.7732L37.6992 37.5427L40.0195 38.2224L41.0391 44.4685Z" fill="#04CE78"/>
<path fill-rule="evenodd" clip-rule="evenodd" d="M25.8633 31.2029C27.1406 31.7185 28.5469 31.988 30 31.988C31.4648 31.988 32.8594 31.7068 34.1367 31.2029C34.0078 32.7263 34.418 34.3083 35.3438 35.9255C34.6055 38.2458 32.4609 39.8279 30 39.8279C27.5391 39.8279 25.3946 38.2341 24.6562 35.9255C25.5821 34.3201 25.9805 32.7263 25.8633 31.2029Z" fill="#FECEA4"/>
<path fill-rule="evenodd" clip-rule="evenodd" d="M48.2227 52.1209C48.2227 53.9139 46.7578 55.3787 44.9648 55.3787C43.1719 55.3787 41.707 53.9139 41.707 52.1209C41.707 50.3279 43.1719 48.8631 44.9648 48.8631C46.7695 48.8514 48.2227 50.3162 48.2227 52.1209Z" fill="#7C7C7C"/>
<path fill-rule="evenodd" clip-rule="evenodd" d="M44.9648 51.5818C45.2578 51.5818 45.4922 51.8162 45.4922 52.1208C45.4922 52.4138 45.2578 52.6482 44.9648 52.6482C44.6719 52.6482 44.4258 52.4138 44.4258 52.1208C44.4375 51.8279 44.6719 51.5818 44.9648 51.5818Z" fill="#04CE78"/>
<path fill-rule="evenodd" clip-rule="evenodd" d="M44.9648 54.5232C46.2891 54.5232 47.3672 53.4451 47.3672 52.1208C47.3672 50.7966 46.2891 49.7068 44.9648 49.7068C43.6406 49.7068 42.5508 50.7849 42.5508 52.1208C42.5625 53.4451 43.6406 54.5232 44.9648 54.5232Z" fill="white"/>
<path fill-rule="evenodd" clip-rule="evenodd" d="M44.9648 54.5232C46.2891 54.5232 47.3672 53.4451 47.3672 52.1208C47.3672 50.7966 46.2891 49.7068 44.9648 49.7068C43.6406 49.7068 42.5508 50.7849 42.5508 52.1208C42.5625 53.4451 43.6406 54.5232 44.9648 54.5232ZM44.9648 51.5818C45.2578 51.5818 45.4922 51.8162 45.4922 52.1208C45.4922 52.4138 45.2578 52.6482 44.9648 52.6482C44.6719 52.6482 44.4258 52.4138 44.4258 52.1208C44.4375 51.8279 44.6719 51.5818 44.9648 51.5818Z" fill="#000D44"/>
<path fill-rule="evenodd" clip-rule="evenodd" d="M55.5234 58.2146V42.8396C55.5234 41.6443 54.75 40.613 53.6016 40.2732L45.6797 37.9529C45.3164 35.9841 44.4141 34.1091 43.0547 32.5388C41.5547 30.8161 39.6445 29.6091 37.582 29.07C39.1289 27.6521 40.2773 25.8122 40.8398 23.7263H41.5898C42.8438 23.7263 43.875 22.7068 43.875 21.4411V19.6247C43.875 18.5935 43.1953 17.7263 42.2578 17.445C44.8242 13.1677 44.1562 7.35521 40.6641 3.76927C35.9531 -1.07058 28.3945 0.804427 24.0117 5.18724C21.4922 4.49583 19.1953 5.17552 17.8242 6.99192C15.9609 9.4763 16.2188 13.3904 18.457 17.3396C17.1445 17.3396 16.0781 18.2888 16.0781 19.6247V21.4411C16.0781 22.7068 17.0977 23.7263 18.3633 23.7263H19.1602C19.7227 25.8005 20.8711 27.6404 22.418 29.07C20.3438 29.6208 18.4336 30.8161 16.9453 32.5388C15.5859 34.1091 14.6836 35.9841 14.3203 37.9529L6.41016 40.2732C5.26172 40.613 4.48828 41.6443 4.48828 42.8396V58.2263C4.48828 59.7029 5.69531 60.9099 7.16016 60.9099H52.8633C54.3164 60.8982 55.5234 59.6911 55.5234 58.2146ZM48.2227 52.1208C48.2227 53.9138 46.7578 55.3786 44.9648 55.3786C43.1719 55.3786 41.707 53.9138 41.707 52.1208C41.707 50.3279 43.1719 48.863 44.9648 48.863C46.7695 48.8513 48.2227 50.3161 48.2227 52.1208ZM43.6055 37.3318C43.6055 37.3318 37.3711 35.5154 37.2773 35.4919C36.1641 33.7693 35.7773 32.1755 36.1289 30.6638C39.6094 31.1325 42.5742 33.9216 43.6055 37.3318ZM25.8633 31.2029C27.1406 31.7185 28.5469 31.988 30 31.988C31.4648 31.988 32.8594 31.7068 34.1367 31.2029C34.0078 32.7263 34.418 34.3083 35.3438 35.9255C34.6055 38.2458 32.4609 39.8279 30 39.8279C27.5391 39.8279 25.3945 38.2341 24.6562 35.9255C25.582 34.32 25.9805 32.7263 25.8633 31.2029ZM41.0391 44.4685L39.1875 44.4216C38.8594 44.4099 38.543 44.5857 38.3672 44.8669L32.8359 53.7732L37.6992 37.5427L40.0195 38.2224L41.0391 44.4685ZM42 21.4294C42 21.8982 41.5078 21.8396 41.1914 21.8396C41.2266 21.488 41.2266 19.2029 41.2266 19.2029C41.5312 19.2029 42 19.156 42 19.613V21.4294ZM17.9414 21.4294V19.613C17.9414 19.1443 18.4453 19.2029 18.7617 19.2029C18.7617 19.2029 18.7852 21.488 18.8086 21.8396C18.4922 21.8396 17.9414 21.9099 17.9414 21.4294ZM19.3242 8.10521C19.9687 7.23802 20.9531 6.79271 22.1133 6.79271C22.582 6.79271 23.0742 6.86302 23.5781 7.01536C24.5625 7.29661 25.1367 6.71067 25.4414 6.39427C29.0039 2.83177 35.4492 1.0974 39.3164 5.07005C41.6836 7.49583 42.7734 11.7614 41.1797 15.4411L41.1563 13.3552C41.1563 13.0974 41.0391 12.8513 40.8516 12.6755C40.6641 12.4997 40.4063 12.4177 40.1484 12.4294C36.0117 12.7575 29.4258 13.4958 25.6523 11.82C24.5156 11.3161 23.2383 11.6325 22.4648 12.6169L19.8398 15.9568C17.8945 12.2654 18.293 9.46458 19.3242 8.10521ZM20.6367 20.7614V17.9255L23.918 13.7654C24.1523 13.4607 24.5391 13.3669 24.8789 13.5193C28.6875 15.2068 34.3125 14.7614 39.2813 14.363L39.3516 20.7732C39.3516 25.9294 35.1562 30.1364 29.9883 30.1364C24.8437 30.113 20.6367 25.9177 20.6367 20.7614ZM23.8828 30.6638C24.2344 32.1755 23.8477 33.7693 22.7344 35.4919C22.6406 35.5036 16.4062 37.3318 16.4062 37.3318C17.4141 33.9216 20.3906 31.1325 23.8828 30.6638ZM27.1758 53.7966L21.6328 44.8786C21.457 44.5974 21.1523 44.4333 20.8125 44.4333L18.9609 44.4802L19.9922 38.2458L22.3125 37.5661L27.1758 53.7966ZM7.14844 59.0232C6.70312 59.0232 6.33984 58.6599 6.33984 58.2146V42.8396C6.33984 42.4646 6.5625 42.1716 6.91406 42.0661L14.1211 39.9568V47.1872C12.2578 47.5974 10.8633 49.2615 10.8633 51.2536V56.4802C10.8633 56.9958 11.2852 57.4177 11.8008 57.4177H13.0312C14.2617 57.4177 14.2617 55.5427 13.0312 55.5427H12.7383V51.2419C12.7383 49.9763 13.7695 48.9568 15.0234 48.9568C16.2891 48.9568 17.3203 49.988 17.3203 51.2419V55.5427H16.957C15.7266 55.5427 15.7266 57.4177 16.957 57.4177H18.2578C18.7734 57.4177 19.1953 56.9958 19.1953 56.4802V51.2536C19.1953 49.2966 17.8359 47.6443 16.0078 47.2107C16.0078 44.7146 15.8672 41.8552 16.0312 39.406L18 38.8318L16.9336 45.2888C16.8867 45.5583 16.9687 45.8396 17.1562 46.0505C17.3437 46.2615 17.6016 46.3786 17.8828 46.3669L20.332 46.3083L28.2305 59.0232H7.14844ZM24.9258 39.7341C26.2734 40.9763 28.0664 41.7146 30 41.7146C31.9336 41.7146 33.7266 40.9763 35.0742 39.7341L30 56.6911L24.9258 39.7341ZM53.6484 58.2146C53.6484 58.6599 53.2852 59.0232 52.8398 59.0232H31.7813L39.668 46.3083L42.1172 46.3669C42.7031 46.3904 43.1484 45.863 43.0664 45.2888L42.0117 38.8318L43.9688 39.406C43.9805 39.5818 43.9922 47.0935 43.9922 47.0935C41.625 47.5505 39.832 49.6365 39.832 52.1325C39.832 54.9568 42.1289 57.2654 44.9648 57.2654C47.7891 57.2654 50.0977 54.9685 50.0977 52.1325C50.0977 49.613 48.2695 47.5036 45.8672 47.0818V39.9685L53.0742 42.0779C53.4375 42.1833 53.6602 42.4763 53.6602 42.8513V58.2146H53.6484Z" fill="#000D44"/>
</g>
</g>
</g>
<defs>
<clipPath id="clip0_5_33">
<rect width="60" height="60" fill="white" transform="translate(0 0.909912)"/>
</clipPath>
<clipPath id="clip1_5_33">
<rect width="60" height="60" fill="white" transform="translate(0 0.909912)"/>
</clipPath>
</defs>
</svg>
