<svg width="60" height="61" viewBox="0 0 60 61" fill="none" xmlns="http://www.w3.org/2000/svg">
<g clip-path="url(#clip0_5_60)">
<path d="M15 6.53491H20.625V10.2849H15V6.53491Z" fill="#E6E9ED"/>
<path d="M24.375 3.72241V5.59741C24.375 6.11303 23.9531 6.53491 23.4375 6.53491H20.625H15H12.1875C11.6719 6.53491 11.25 6.11303 11.25 5.59741V3.72241C11.25 3.20679 11.6719 2.78491 12.1875 2.78491H23.4375C23.9531 2.78491 24.375 3.20679 24.375 3.72241Z" fill="#CCD1D9"/>
<path d="M26.25 11.2224V13.0974C26.25 13.613 25.8281 14.0349 25.3125 14.0349H22.5H13.125H10.3125C9.79688 14.0349 9.375 13.613 9.375 13.0974V11.2224C9.375 10.7068 9.79688 10.2849 10.3125 10.2849H15H20.625H25.3125C25.8281 10.2849 26.25 10.7068 26.25 11.2224Z" fill="#CCD1D9"/>
<path d="M22.5 29.0349L18.75 34.6599H17.8125H16.875L13.125 29.0349H22.5Z" fill="#04CE78"/>
<path d="M22.5 25.2849V29.0349H13.125V14.0349H22.5V17.7849V21.5349V25.2849Z" fill="#04CE78"/>
<path d="M48.75 55.2849V57.1599C48.75 58.1911 47.9062 59.0349 46.875 59.0349H3.75C2.71875 59.0349 1.875 58.1911 1.875 57.1599V55.2849C1.875 54.0661 2.26875 52.8849 3 51.9099C3.69375 50.9818 4.64062 50.3068 5.71875 49.9505C6.29063 49.763 6.89062 49.6599 7.5 49.6599H15H20.625H30H35.625H43.125C43.7344 49.6599 44.3344 49.763 44.9062 49.9505C45.1594 50.0349 45.4031 50.1287 45.6375 50.2505C46.4156 50.6349 47.1 51.1974 47.625 51.9099C48.3563 52.8849 48.75 54.0661 48.75 55.2849Z" fill="#1F5FFF"/>
<path d="M56.25 9.34741V18.7224C56.25 21.3099 54.15 23.4099 51.5625 23.4099H38.7656C38.0062 23.4099 37.3125 23.8787 37.0312 24.5911L35.9062 27.3943C35.7375 27.8161 35.325 28.0974 34.8656 28.0974C34.2469 28.0974 33.75 27.6005 33.75 26.9818V9.34741C33.75 6.75991 35.85 4.65991 38.4375 4.65991H51.5625C54.15 4.65991 56.25 6.75991 56.25 9.34741Z" fill="#04CE78"/>
<path d="M50.625 13.0974V14.9724C50.625 15.488 50.2031 15.9099 49.6875 15.9099H46.875V18.7224C46.875 19.238 46.4531 19.6599 45.9375 19.6599H44.0625C43.5469 19.6599 43.125 19.238 43.125 18.7224V15.9099H40.3125C39.7969 15.9099 39.375 15.488 39.375 14.9724V13.0974C39.375 12.5818 39.7969 12.1599 40.3125 12.1599H43.125V9.34741C43.125 8.83179 43.5469 8.40991 44.0625 8.40991H45.9375C46.4531 8.40991 46.875 8.83179 46.875 9.34741V12.1599H49.6875C50.2031 12.1599 50.625 12.5818 50.625 13.0974Z" fill="#E6E9ED"/>
<path d="M43.125 49.6599H35.625C34.4063 47.8224 33.75 45.6755 33.75 43.463V40.7724C33.75 39.8443 34.0219 38.9349 34.5469 38.1568C35.2219 37.1443 36.3563 36.5349 37.575 36.5349C38.1469 36.5349 38.7 36.6661 39.2062 36.9193C39.5531 37.0974 39.9375 37.1818 40.3125 37.1818C40.6875 37.1818 41.0719 37.0974 41.4188 36.9193C41.925 36.6661 42.4781 36.5349 43.05 36.5349C44.2687 36.5349 45.4031 37.1443 46.0781 38.1568C46.6031 38.9349 46.875 39.8443 46.875 40.7724V43.463C46.875 45.6755 46.2188 47.8224 45 49.6599L44.9063 49.9505C44.3344 49.763 43.7344 49.6599 43.125 49.6599Z" fill="#E6E9ED"/>
<path d="M31.875 40.7724V43.463C31.875 45.6755 31.2188 47.8224 30 49.6599H20.625C19.4063 47.8224 18.75 45.6755 18.75 43.463V40.7724C18.75 39.8443 19.0219 38.9349 19.5469 38.1568C20.2219 37.1443 21.3563 36.5349 22.575 36.5349C23.1469 36.5349 23.7 36.6661 24.2062 36.9193C24.5531 37.0974 24.9375 37.1818 25.3125 37.1818C25.6875 37.1818 26.0719 37.0974 26.4188 36.9193C26.925 36.6661 27.4781 36.5349 28.05 36.5349C29.2688 36.5349 30.4031 37.1443 31.0781 38.1568C31.6031 38.9349 31.875 39.8443 31.875 40.7724Z" fill="#E6E9ED"/>
<path d="M7.5 49.6599C6.89062 49.6599 6.29062 49.763 5.71875 49.9505L5.625 49.6599C4.40625 47.8224 3.75 45.6755 3.75 43.463V40.7724C3.75 39.8443 4.02187 38.9349 4.54687 38.1568C5.22187 37.1443 6.35625 36.5349 7.575 36.5349C8.14687 36.5349 8.7 36.6661 9.20625 36.9193C9.55312 37.0974 9.9375 37.1818 10.3125 37.1818C10.6875 37.1818 11.0719 37.0974 11.4188 36.9193C11.925 36.6661 12.4781 36.5349 13.05 36.5349C14.2688 36.5349 15.4031 37.1443 16.0781 38.1568C16.6031 38.9349 16.875 39.8443 16.875 40.7724V43.463C16.875 45.6755 16.2188 47.8224 15 49.6599H7.5Z" fill="#E6E9ED"/>
<path d="M46.1991 49.4986C47.2556 47.6649 47.8125 45.5968 47.8125 43.4677V40.7761C47.8125 39.6558 47.4834 38.5702 46.8628 37.6393C46.0097 36.3605 44.5847 35.5974 43.0481 35.5974C42.3394 35.5974 41.6306 35.7652 40.9987 36.0821C40.5694 36.2968 40.0556 36.2968 39.6272 36.0821C38.9944 35.7652 38.2847 35.5974 37.5769 35.5974C36.0413 35.5974 34.6153 36.3605 33.7631 37.6393C33.1416 38.5702 32.8125 39.6549 32.8125 40.7752C32.8125 39.6549 32.4834 38.5693 31.8628 37.6383C31.0097 36.3605 29.5847 35.5974 28.0481 35.5974C27.3394 35.5974 26.6306 35.7652 25.9988 36.0821C25.5694 36.2968 25.0556 36.2968 24.6272 36.0821C23.9944 35.7652 23.2847 35.5974 22.5769 35.5974C21.0413 35.5974 19.6153 36.3605 18.7631 37.6393C18.7584 37.6458 18.7556 37.6543 18.7509 37.6608V35.5974H19.2525L23.4375 29.319V14.9724H25.3125C26.3466 14.9724 27.1875 14.1315 27.1875 13.0974V11.2224C27.1875 10.1884 26.3466 9.34741 25.3125 9.34741H21.5625V7.47241H23.4375C24.4716 7.47241 25.3125 6.63147 25.3125 5.59741V3.72241C25.3125 2.68835 24.4716 1.84741 23.4375 1.84741H12.1875C11.1534 1.84741 10.3125 2.68835 10.3125 3.72241V5.59741C10.3125 6.63147 11.1534 7.47241 12.1875 7.47241H14.0625V9.34741H10.3125C9.27844 9.34741 8.4375 10.1884 8.4375 11.2224V13.0974C8.4375 14.1315 9.27844 14.9724 10.3125 14.9724H12.1875V29.319L16.3734 35.5974H16.875V37.6608C16.8703 37.6533 16.8675 37.6458 16.8628 37.6393C16.0097 36.3605 14.5847 35.5974 13.0481 35.5974C12.3394 35.5974 11.6306 35.7652 10.9988 36.0821C10.5694 36.2968 10.0556 36.2968 9.62719 36.0821C8.99438 35.7652 8.28469 35.5974 7.57687 35.5974C6.04125 35.5974 4.61531 36.3605 3.76312 37.6393C3.14156 38.5702 2.8125 39.6549 2.8125 40.7752V43.4668C2.8125 45.5958 3.36938 47.6649 4.42594 49.4986C3.58313 49.9458 2.83313 50.5693 2.25 51.3465C1.40344 52.4743 0.9375 53.8721 0.9375 55.284V57.1599C0.9375 58.7105 2.19937 59.9724 3.75 59.9724H46.875C48.4256 59.9724 49.6875 58.7105 49.6875 57.1599V55.284C49.6875 53.8721 49.2206 52.4743 48.375 51.3474C47.7919 50.5693 47.0419 49.9458 46.1991 49.4986ZM12.1875 3.72241H23.4375L23.4384 5.59741H12.1875V3.72241ZM19.6875 7.47241V9.34741H15.9375V7.47241H19.6875ZM10.3125 11.2224H14.0625H15H20.625H21.5625H25.3125V13.0974H10.3125V11.2224ZM21.5625 14.9724V16.8474H17.8125V18.7224H21.5625V20.5974H19.6875V22.4724H21.5625V24.3474H17.8125V26.2224H21.5625V28.0974H14.0625V14.9724H21.5625ZM14.8763 29.9724H20.7478L18.2475 33.7224H17.3756L14.8763 29.9724ZM34.6875 40.7752C34.6875 40.0261 34.9069 39.3015 35.3222 38.679C36.0591 37.5755 37.5994 37.1649 38.7891 37.7593C39.7434 38.2355 40.8816 38.2355 41.8369 37.7593C43.0209 37.164 44.5659 37.5755 45.3019 38.679C45.7181 39.3015 45.9375 40.0271 45.9375 40.7752V43.4668C45.9375 45.3821 45.4012 47.2365 44.3934 48.8574C43.9781 48.7749 43.5553 48.7224 43.125 48.7224H36.1481C35.1947 47.1333 34.6875 45.3296 34.6875 43.4677V40.7752ZM32.8125 43.4677C32.8125 45.3015 33.2269 47.0902 34.0163 48.7224H31.6097C32.3981 47.0893 32.8125 45.3015 32.8125 43.4677ZM19.6875 40.7752C19.6875 40.0261 19.9069 39.3015 20.3222 38.679C21.0591 37.5755 22.5994 37.1649 23.7891 37.7593C24.7434 38.2355 25.8816 38.2355 26.8369 37.7593C28.0219 37.164 29.5659 37.5755 30.3019 38.679C30.7181 39.3015 30.9375 40.0271 30.9375 40.7752V43.4668C30.9375 45.3287 30.4303 47.1333 29.4769 48.7215H21.1481C20.1947 47.1333 19.6875 45.3296 19.6875 43.4677V40.7752ZM17.8125 43.4677C17.8125 45.3015 18.2269 47.0902 19.0163 48.7224H16.6097C17.3981 47.0893 17.8125 45.3015 17.8125 43.4677ZM4.6875 43.4677V40.7761C4.6875 40.0271 4.90688 39.3024 5.32219 38.6799C6.05906 37.5765 7.59937 37.1658 8.78906 37.7602C9.74344 38.2365 10.8816 38.2365 11.8369 37.7602C13.0219 37.1649 14.5659 37.5765 15.3019 38.6799C15.7181 39.3015 15.9375 40.0271 15.9375 40.7752V43.4668C15.9375 45.3287 15.4303 47.1333 14.4769 48.7215H7.5C7.07062 48.7215 6.64781 48.774 6.23156 48.8565C5.22375 47.2365 4.6875 45.3821 4.6875 43.4677ZM47.8125 57.1599C47.8125 57.6774 47.3916 58.0974 46.875 58.0974H3.75C3.23344 58.0974 2.8125 57.6774 2.8125 57.1599V55.284C2.8125 54.2761 3.14531 53.2768 3.75 52.4715C4.63031 51.2977 6.03188 50.5974 7.5 50.5974H43.125C44.5922 50.5974 45.9947 51.2977 46.875 52.4724C47.4797 53.2768 47.8125 54.2761 47.8125 55.284V57.1599Z" fill="#000D44"/>
<path d="M8.4375 39.3474H12.1875V41.2224H8.4375V39.3474Z" fill="#000D44"/>
<path d="M23.4375 39.3474H27.1875V41.2224H23.4375V39.3474Z" fill="#000D44"/>
<path d="M38.4375 39.3474H42.1875V41.2224H38.4375V39.3474Z" fill="#000D44"/>
<path d="M51.5625 3.72241H38.4375C35.3353 3.72241 32.8125 6.24522 32.8125 9.34741V26.9799C32.8125 28.1133 33.7341 29.0349 34.8675 29.0349C35.7131 29.0349 36.4622 28.5277 36.7763 27.743L37.8984 24.9371C38.0419 24.579 38.3841 24.3474 38.7694 24.3474H51.5625C54.6647 24.3474 57.1875 21.8246 57.1875 18.7224V9.34741C57.1875 6.24522 54.6647 3.72241 51.5625 3.72241ZM55.3125 18.7224C55.3125 20.7905 53.6306 22.4724 51.5625 22.4724H38.7694C37.6125 22.4724 36.5878 23.1662 36.1575 24.2405L35.0353 27.0465C34.9716 27.2086 34.6875 27.1533 34.6875 26.9799V9.34741C34.6875 7.27928 36.3694 5.59741 38.4375 5.59741H51.5625C53.6306 5.59741 55.3125 7.27928 55.3125 9.34741V18.7224Z" fill="#000D44"/>
<path d="M49.6875 11.2224H47.8125V9.34741C47.8125 8.31335 46.9716 7.47241 45.9375 7.47241H44.0625C43.0284 7.47241 42.1875 8.31335 42.1875 9.34741V11.2224H40.3125C39.2784 11.2224 38.4375 12.0633 38.4375 13.0974V14.9724C38.4375 16.0065 39.2784 16.8474 40.3125 16.8474H42.1875V18.7224C42.1875 19.7565 43.0284 20.5974 44.0625 20.5974H45.9375C46.9716 20.5974 47.8125 19.7565 47.8125 18.7224V16.8474H49.6875C50.7216 16.8474 51.5625 16.0065 51.5625 14.9724V13.0974C51.5625 12.0633 50.7216 11.2224 49.6875 11.2224ZM49.6875 14.9724H45.9375V18.7224H44.0625V14.9724H40.3125V13.0974H44.0625L44.0616 9.34741H45.9375V13.0974H49.6875V14.9724Z" fill="#000D44"/>
</g>
<defs>
<clipPath id="clip0_5_60">
<rect width="60" height="60" fill="white" transform="translate(0 0.909912)"/>
</clipPath>
</defs>
</svg>
