<svg width="60" height="61" viewBox="0 0 60 61" fill="none" xmlns="http://www.w3.org/2000/svg">
<g clip-path="url(#clip0_5_86)">
<mask id="mask0_5_86" style="mask-type:luminance" maskUnits="userSpaceOnUse" x="0" y="0" width="60" height="61">
<path d="M60 0.909912H0V60.9099H60V0.909912Z" fill="white"/>
</mask>
<g mask="url(#mask0_5_86)">
<path d="M16.8674 15.2961V22.2601H15.1992V34.6104L20.3216 35.6795L24.2544 16.838L16.8674 15.2961Z" fill="#04CE78"/>
<path d="M16.6735 29.7011C17.1407 24.7167 18.1954 20.0421 19.691 15.8855L15.734 15.0596L11.8013 33.9011L16.4114 34.8633C16.4238 33.1732 16.5096 31.4491 16.6735 29.7011Z" fill="#1F5FFF"/>
<path d="M42.2412 24.5979H50.052V39.6028H42.2412V24.5979Z" fill="#04CE78"/>
<path d="M45.498 30.0898C45.498 27.6698 47.4597 25.7081 49.8796 25.7081H50.052V24.5979H42.2412V39.6028H45.498V30.0898Z" fill="#1F5FFF"/>
<path d="M46.1467 60.0309C42.7059 60.0309 39.9711 57.1409 40.1607 53.7053L40.9039 40.2418C40.9589 39.2436 41.7844 38.4624 42.7841 38.4624H49.5092C50.5089 38.4624 51.3344 39.2436 51.3895 40.2418L52.1327 53.7053C52.3223 57.1409 49.5876 60.0309 46.1467 60.0309Z" fill="#6A829A"/>
<path d="M45.498 56.5282V38.4624H42.7841C41.7844 38.4624 40.9589 39.2436 40.9039 40.2418L40.1607 53.7053C39.9711 57.1409 42.7057 60.0309 46.1466 60.0309C46.486 60.0309 46.818 60.0017 47.1415 59.9478C46.1399 59.1448 45.498 57.9118 45.498 56.5282Z" fill="#516980"/>
<path d="M47.2436 1.83496C53.823 2.39137 58.9895 7.90808 58.9895 14.6315C58.9895 20.9824 54.3796 26.2567 48.3233 27.2905L44.0482 26.8077L38.5518 14.5628L43.0012 2.98984L47.2436 1.83496Z" fill="#6A829A"/>
<path d="M42.2411 14.0578C42.2411 9.2969 44.15 4.98241 47.2432 1.83593C46.8815 1.80534 46.516 1.78882 46.1464 1.78882C39.0535 1.78882 33.3037 7.53874 33.3037 14.6315C33.3037 21.7244 39.0536 27.4742 46.1464 27.4742C46.8883 27.4742 47.6154 27.4104 48.3228 27.2897C44.5999 24.0919 42.2411 19.3505 42.2411 14.0578Z" fill="#516980"/>
<path d="M43.7467 6.91513C44.5052 6.67865 45.3115 6.55127 46.1469 6.55127C50.6024 6.55127 54.2272 10.1761 54.2272 14.6315C54.2272 19.087 50.6024 22.712 46.1469 22.712C45.5594 22.712 44.9865 22.6489 44.4343 22.5294L42.0293 20.9749L39.3745 14.6317L41.0571 9.30904L43.7467 6.91513Z" fill="#04CE78"/>
<path d="M42.2413 14.0577C42.2413 11.5099 42.788 9.09 43.7702 6.9082C40.471 7.92551 38.0664 11.0026 38.0664 14.6313C38.0664 18.4993 40.799 21.7397 44.4345 22.5274C43.038 20.0196 42.2413 17.1319 42.2413 14.0577Z" fill="#1F5FFF"/>
<path d="M24.8772 5.8208C26.7426 6.2231 28.0146 8.0299 27.6978 9.96771L26.5718 16.8565C26.2288 18.9546 24.1691 20.3141 22.105 19.8048L18.6925 18.9628L17.0703 16.8689L17.405 11.4922L22.1793 6.55123L24.8772 5.8208Z" fill="#6A829A"/>
<path d="M24.8768 5.82217C24.7224 5.78889 24.5643 5.76393 24.4023 5.75057L16.817 5.1262C14.9248 4.97046 13.2303 6.29456 12.9241 8.16827L11.9939 13.858C11.6876 15.7319 12.8723 17.5266 14.7156 17.9814L18.6925 18.9627C20.1818 13.8331 22.3207 9.34214 24.8768 5.82217Z" fill="#516980"/>
<path d="M16.365 60.0309C12.9241 60.0309 10.1893 57.1409 10.3789 53.7053L11.1221 33.14C11.1772 32.1418 12.0027 31.3606 13.0024 31.3606H19.7274C20.7272 31.3606 21.5526 32.1418 21.6077 33.14L22.3509 53.7053C22.5406 57.1409 19.8058 60.0309 16.365 60.0309Z" fill="#6A829A"/>
<path d="M15.5485 56.5281V34.1617C15.5485 33.0964 15.929 32.1201 16.5612 31.3606H13.0024C12.0027 31.3606 11.1772 32.1418 11.1221 33.14L10.3789 53.7053C10.1893 57.1409 12.924 60.0309 16.3649 60.0309C16.6551 60.0309 16.9399 60.0086 17.2188 59.9689C16.2021 59.1665 15.5485 57.9241 15.5485 56.5281Z" fill="#516980"/>
<path d="M3.5248 12.0657C4.91274 12.0657 6.03789 10.9406 6.03789 9.55263C6.03789 8.1647 4.91274 7.03955 3.5248 7.03955C2.13687 7.03955 1.01172 8.1647 1.01172 9.55263C1.01172 10.9406 2.13687 12.0657 3.5248 12.0657Z" fill="#04CE78"/>
<path d="M59.868 14.6315C59.868 11.8365 59.0327 9.14702 57.4523 6.85378C57.1768 6.45405 56.6298 6.35339 56.2298 6.62878C55.8301 6.90428 55.7293 7.45155 56.0048 7.85128C57.3822 9.84991 58.1102 12.1945 58.1102 14.6315C58.1102 21.2283 52.7432 26.5953 46.1463 26.5953C39.5495 26.5953 34.1825 21.2283 34.1825 14.6315C34.1826 8.03468 39.5496 2.66772 46.1464 2.66772C48.7734 2.66772 51.2661 3.50268 53.3553 5.08249C53.7424 5.37534 54.2936 5.29882 54.5865 4.91163C54.8792 4.52444 54.8027 3.97319 54.4155 3.68046C52.0186 1.86792 49.1592 0.909912 46.1464 0.909912C38.5802 0.909912 32.4248 7.06542 32.4248 14.6315C32.4248 20.5158 36.1483 25.5463 41.3627 27.4922V37.9781C40.6028 38.4352 40.0783 39.2479 40.0262 40.1935L39.283 53.6571C39.1779 55.5623 39.8421 57.3748 41.1537 58.7607C42.4652 60.1467 44.2384 60.9099 46.1464 60.9099C48.0546 60.9099 49.8277 60.1467 51.1392 58.7607C52.4507 57.3747 53.1151 55.5623 53.01 53.6569L52.2668 40.1934C52.2146 39.2481 51.6903 38.4358 50.9311 37.9785V27.4918C56.145 25.5458 59.868 20.5156 59.868 14.6315ZM49.8625 57.5525C48.8864 58.584 47.5666 59.1521 46.1464 59.1521C44.7263 59.1521 43.4066 58.584 42.4304 57.5525C41.4542 56.521 40.9597 55.1719 41.038 53.7538L41.7812 40.2903C41.8106 39.7581 42.251 39.3414 42.7839 39.3414H49.5091C50.042 39.3414 50.4825 39.7583 50.5119 40.2904L51.2551 53.754C51.3331 55.1719 50.8387 56.5209 49.8625 57.5525ZM49.1732 37.5836H43.1205V28.0162C44.0945 28.2363 45.107 28.3531 46.1464 28.3531C47.1862 28.3531 48.1991 28.2362 49.1732 28.0161V37.5836Z" fill="black"/>
<path d="M46.1462 5.67236C41.2061 5.67236 37.187 9.69142 37.187 14.6315C37.187 19.5717 41.2061 23.5909 46.1462 23.5909C51.0864 23.5909 55.1056 19.5717 55.1056 14.6315C55.1056 9.69142 51.0864 5.67236 46.1462 5.67236ZM46.1462 21.8331C42.1753 21.8331 38.9448 18.6024 38.9448 14.6315C38.9448 10.6607 42.1753 7.43017 46.1462 7.43017C50.1172 7.43017 53.3478 10.6607 53.3478 14.6315C53.3478 18.6024 50.1171 21.8331 46.1462 21.8331Z" fill="black"/>
<path d="M46.1465 9.53955C45.661 9.53955 45.2676 9.93306 45.2676 10.4185C45.2676 10.9038 45.661 11.2973 46.1465 11.2973C47.985 11.2973 49.4808 12.7931 49.4808 14.6315C49.4808 15.1169 49.8742 15.5105 50.3597 15.5105C50.8452 15.5105 51.2386 15.1169 51.2386 14.6315C51.2386 11.8237 48.9543 9.53955 46.1465 9.53955Z" fill="black"/>
<path d="M24.4744 4.8747L16.889 4.25021C14.5578 4.05825 12.4339 5.71693 12.0566 8.02646L11.7334 10.004L6.89927 9.2138C6.74927 7.72458 5.61759 6.4579 4.07177 6.20525C2.22642 5.90361 0.478806 7.15986 0.177048 9.00568C-0.124592 10.8514 1.13166 12.5986 2.97736 12.9003C3.16193 12.9304 3.34533 12.945 3.5265 12.945C4.86338 12.945 6.07299 12.1498 6.61591 10.9486L11.4499 11.7388L11.1267 13.7162C10.7735 15.8765 12.0491 17.9827 14.0747 18.7049L11.5268 30.9096C10.7962 31.3723 10.2954 32.1688 10.2445 33.0918C10.2442 33.0973 10.2439 33.1029 10.2437 33.1084L9.92552 41.9127C9.90806 42.3979 10.287 42.8053 10.7722 42.8228C11.2542 42.8401 11.6646 42.4613 11.6823 41.9762L12.0001 33.1814C12.0329 32.6527 12.4718 32.2396 13.0024 32.2396H19.7276C20.2579 32.2396 20.6968 32.6527 20.7299 33.1814L21.4727 53.7372C21.4729 53.7427 21.4732 53.7483 21.4735 53.7539C21.5518 55.1719 21.0573 56.521 20.0811 57.5526C19.1049 58.584 17.7852 59.1522 16.365 59.1522C14.9449 59.1522 13.6251 58.584 12.649 57.5526C11.6728 56.5211 11.1783 55.172 11.2565 53.7539C11.2569 53.7483 11.2571 53.7428 11.2574 53.7372L11.533 46.1125C11.5504 45.6273 11.1715 45.2199 10.6863 45.2024C10.2045 45.1835 9.79392 45.5638 9.77623 46.049L9.50095 53.6657C9.3983 55.5678 10.0626 57.3769 11.3722 58.7608C12.6837 60.1467 14.4568 60.91 16.3649 60.91C18.273 60.91 20.0462 60.1467 21.3576 58.7608C22.6672 57.3769 23.3315 55.5676 23.2289 53.6657L22.486 33.1085C22.4858 33.103 22.4856 33.0974 22.4852 33.0918C22.4577 32.5921 22.2981 32.1296 22.0418 31.7369L24.3746 20.5647C24.7578 20.4403 25.1265 20.2671 25.4678 20.0419C26.5175 19.349 27.236 18.2397 27.4388 16.9982L28.5649 10.1095C28.7678 8.8681 28.44 7.58759 27.6654 6.59654C26.8911 5.60548 25.7279 4.97782 24.4744 4.8747ZM5.13736 9.81626C4.99193 10.7056 4.14888 11.3111 3.26084 11.1654C2.37162 11.0201 1.76646 10.1784 1.91166 9.28915C2.04256 8.48864 2.73748 7.91841 3.52345 7.91841C3.61076 7.91841 3.69924 7.92544 3.78806 7.93997C4.67752 8.0854 5.28267 8.92716 5.13736 9.81626ZM13.4119 30.482L15.7776 19.1488L21.8944 20.6582C22.1067 20.7106 22.3215 20.7451 22.537 20.766L20.486 30.5883C20.2446 30.5194 19.9903 30.482 19.7276 30.482H13.4119ZM26.8304 9.82599L25.7044 16.7147C25.5785 17.4845 25.1505 18.1452 24.4997 18.5749C23.8485 19.0047 23.0726 19.1384 22.3155 18.9515L14.9263 17.1281C13.5375 16.7855 12.6306 15.4115 12.8613 13.9998L13.7914 8.31005C14.01 6.97294 15.1855 5.9929 16.5206 5.9929C16.5949 5.9929 16.6698 5.99595 16.745 6.00216L24.3303 6.62665C25.1078 6.69064 25.8003 7.06447 26.2808 7.679C26.7609 8.29365 26.9562 9.05618 26.8304 9.82599Z" fill="black"/>
</g>
</g>
<defs>
<clipPath id="clip0_5_86">
<rect width="60" height="60" fill="white" transform="translate(0 0.909912)"/>
</clipPath>
</defs>
</svg>
