<svg width="60" height="61" viewBox="0 0 60 61" fill="none" xmlns="http://www.w3.org/2000/svg">
<g clip-path="url(#clip0_5_117)">
<mask id="mask0_5_117" style="mask-type:luminance" maskUnits="userSpaceOnUse" x="0" y="0" width="60" height="61">
<path d="M60 0.909912H0V60.9099H60V0.909912Z" fill="white"/>
</mask>
<g mask="url(#mask0_5_117)">
<path d="M26.9204 1.78882C12.5381 1.78882 0.878906 13.448 0.878906 27.8304C0.878906 34.22 3.18141 40.0708 7.0002 44.6019H3.95648C2.91047 44.6019 2.0625 45.4498 2.0625 46.4958C2.0625 47.5419 2.91047 48.3898 3.95648 48.3898H11.5322C12.5782 48.3898 13.4262 47.5419 13.4262 46.4958V38.9201C13.4262 37.8741 12.5782 37.0261 11.5322 37.0261C10.4862 37.0261 9.6382 37.8741 9.6382 38.9201V41.8333C6.53145 38.0063 4.66664 33.1325 4.66664 27.8306C4.66664 15.5599 14.6496 5.57679 26.9204 5.57679C39.1912 5.57679 49.1742 15.5596 49.1742 27.8304H52.9621C52.9621 13.448 41.3029 1.78882 26.9204 1.78882Z" fill="#1F5FFF"/>
<path d="M50.5341 16.8403C49.7125 17.1442 48.9588 17.6237 48.3209 18.2616L47.4175 19.165C48.5482 21.8295 49.174 24.7581 49.174 27.8302H52.9619C52.9619 23.9029 52.0908 20.1796 50.5341 16.8403Z" fill="#1F5FFF"/>
<path d="M25.8893 46.0505L20.0303 51.9095C19.1058 52.834 19.1058 54.3331 20.0303 55.2576L23.413 58.6403C24.6851 59.9124 26.5672 60.3536 28.2723 59.7797C31.9028 58.5577 38.5588 55.4097 46.5293 47.4392C54.4998 39.4687 57.6478 32.8127 58.8699 29.1822C59.4438 27.4771 59.0026 25.595 57.7304 24.3229L54.3477 20.9402C53.4232 20.0157 51.9241 20.0157 50.9997 20.9402L45.1406 26.7992C44.2161 27.7237 44.2161 29.2227 45.1406 30.1472L46.4025 31.4091C46.852 31.8586 46.9484 32.551 46.6384 33.106C45.677 34.8271 43.4329 38.5511 40.537 41.4469C37.6412 44.3427 33.9172 46.5869 32.1961 47.5483C31.6411 47.8582 30.9488 47.7619 30.4992 47.3124L29.2374 46.0505C28.3127 45.126 26.8138 45.126 25.8893 46.0505Z" fill="#04CE78"/>
<path d="M57.7302 24.3228L55.5431 22.1357C56.8152 23.4078 57.2564 25.2899 56.6824 26.995C55.4604 30.6255 52.3124 37.2815 44.3419 45.252C36.3714 53.2225 29.7154 56.3705 26.0849 57.5926C24.3798 58.1665 22.4977 57.7253 21.2256 56.4532L23.4128 58.6403C24.6848 59.9124 26.567 60.3536 28.2721 59.7798C31.9025 58.5577 38.5586 55.4097 46.5291 47.4392C54.4996 39.4687 57.6476 32.8127 58.8696 29.1822C59.4435 27.4771 59.0023 25.595 57.7302 24.3228Z" fill="#04CE78"/>
<path d="M2.43621 37.597C2.53594 37.597 2.6373 37.5799 2.73633 37.5439C3.19254 37.3781 3.42785 36.8739 3.26215 36.4177C2.26383 33.6712 1.7577 30.7823 1.7577 27.831C1.7577 21.1096 4.3752 14.7906 9.12785 10.0379C13.8805 5.28511 20.1996 2.66772 26.921 2.66772C32.3164 2.66772 37.4592 4.3503 41.7935 7.53358C42.1847 7.82093 42.7348 7.73667 43.0221 7.3455C43.3095 6.95432 43.2252 6.40425 42.834 6.1169C38.1959 2.7105 32.6932 0.909912 26.921 0.909912C19.73 0.909912 12.9696 3.71022 7.88496 8.79487C2.80031 13.8795 0 20.6401 0 27.8309C0 30.9876 0.541758 34.0786 1.61016 37.0181C1.74 37.3751 2.07703 37.597 2.43621 37.597Z" fill="#000D44"/>
<path d="M58.3514 23.701L54.9696 20.3192C54.3565 19.7061 53.5411 19.3684 52.6737 19.3684C52.6105 19.3684 52.5477 19.3707 52.4851 19.3742C51.1861 15.4497 48.97 11.8361 46.0433 8.88277C45.7017 8.53801 45.1452 8.53555 44.8004 8.87715C44.4557 9.21875 44.4532 9.77527 44.7948 10.12C47.5362 12.8863 49.61 16.2716 50.8229 19.9473C50.6655 20.057 50.5163 20.1806 50.3777 20.3191L49.1768 21.52C47.8942 17.0176 45.2373 12.9539 41.583 9.95176C37.4595 6.56398 32.2523 4.69824 26.9209 4.69824C14.1655 4.69824 3.78832 15.0754 3.78832 27.8308C3.78832 33.1127 5.62348 38.2824 8.95559 42.3877C9.19008 42.6766 9.5809 42.7865 9.93188 42.6622C10.2825 42.5379 10.5169 42.206 10.5169 41.8339V38.9208C10.5169 38.3612 10.9721 37.906 11.5317 37.906C12.0919 37.906 12.5476 38.3613 12.5476 38.9208V46.4965C12.5476 47.056 12.0919 47.5113 11.5317 47.5113H3.95602C3.39645 47.5113 2.94129 47.056 2.94129 46.4965C2.94129 45.9369 3.39656 45.4817 3.95602 45.4817H7.00043C7.34238 45.4817 7.65316 45.2834 7.79742 44.9734C7.94156 44.6633 7.8927 44.2978 7.67238 44.0363C6.62227 42.7908 5.69086 41.4399 4.90395 40.0213C4.66852 39.5968 4.13367 39.4436 3.7091 39.6791C3.28465 39.9145 3.13148 40.4495 3.36691 40.8739C3.91289 41.8581 4.52379 42.8118 5.19211 43.7239H3.95602C2.4273 43.7239 1.18359 44.9676 1.18359 46.4963C1.18359 48.0252 2.4273 49.2689 3.95602 49.2689H11.5317C13.0611 49.2689 14.3053 48.0252 14.3053 46.4963V38.9208C14.3053 37.392 13.0611 36.1483 11.5317 36.1483C10.0029 36.1483 8.75918 37.392 8.75918 38.9208V39.0852C6.67371 35.7207 5.54613 31.8101 5.54613 27.8309C5.54613 16.0448 15.1348 6.45605 26.921 6.45605C31.8465 6.45605 36.6574 8.17988 40.4673 11.31C44.1035 14.2973 46.6718 18.4201 47.7361 22.9609L44.5187 26.1783C43.9056 26.7914 43.5678 27.6065 43.5678 28.4736C43.5678 29.3407 43.9056 30.1558 44.5187 30.769L45.7815 32.0318C45.9517 32.2015 45.9882 32.467 45.8702 32.6779C45.5459 33.2591 45.0127 34.1781 44.3146 35.2557C44.0507 35.6631 44.167 36.2073 44.5744 36.4712C44.9818 36.7351 45.5259 36.6188 45.7898 36.2114C46.5138 35.0936 47.0679 34.1388 47.4047 33.5353C47.7543 32.91 47.7818 32.17 47.52 31.5344L55.6095 23.445L57.1085 24.944C58.1512 25.9869 58.507 27.5035 58.0372 28.9017C55.4822 36.4908 49.3407 43.3838 45.9073 46.8173C42.4738 50.2508 35.5807 56.3922 27.9921 58.9472C26.5935 59.4172 25.0768 59.0615 24.034 58.0187L22.5349 56.5196L30.6245 48.4301C31.2604 48.6919 31.9999 48.6644 32.625 48.3151C34.5593 47.2346 38.24 44.9864 41.1587 42.0689C41.8852 41.3426 42.6204 40.5159 43.3443 39.6122C43.6477 39.2333 43.5865 38.6803 43.2076 38.3769C42.8287 38.0735 42.2756 38.1347 41.9723 38.5135C41.2887 39.3671 40.5968 40.1451 39.9161 40.826C37.0443 43.6966 33.2611 45.9465 31.7675 46.7809C31.5573 46.8986 31.2916 46.862 31.1211 46.691L29.8591 45.429C29.246 44.8159 28.4309 44.4781 27.5638 44.4781C26.6967 44.4781 25.8816 44.8159 25.2684 45.429L19.4094 51.2879C18.7963 51.901 18.4586 52.7164 18.4586 53.584C18.4586 54.4514 18.7963 55.2668 19.4094 55.8799L22.7912 59.2618C23.8664 60.337 25.2872 60.9104 26.7483 60.9103C27.3499 60.9103 27.9587 60.8129 28.5525 60.6133C30.9994 59.7896 33.5848 58.5357 36.2368 56.8867C39.8984 54.6099 43.5702 51.6404 47.1502 48.0603C50.7301 44.4802 53.6998 40.8085 55.9765 37.147C57.6255 34.4949 58.8793 31.9095 59.7033 29.4622C60.3872 27.4264 59.8693 25.2188 58.3514 23.701ZM46.402 30.1665L45.7615 29.5259C45.4804 29.2448 45.3255 28.8711 45.3255 28.4736C45.3255 28.0761 45.4804 27.7023 45.7615 27.4211L51.6205 21.5621C51.9016 21.281 52.2756 21.1262 52.6736 21.1262C53.0714 21.1262 53.4455 21.281 53.7266 21.5621L54.3666 22.2021L46.402 30.1665ZM20.2162 53.5835C20.2162 53.1855 20.3711 52.8116 20.6522 52.5304L26.5112 46.6714C26.7923 46.3903 27.1662 46.2355 27.5637 46.2355C27.9612 46.2355 28.335 46.3903 28.6161 46.6714L29.2566 47.3118L21.292 55.2764L20.6521 54.6364C20.3711 54.3554 20.2162 53.9815 20.2162 53.5835Z" fill="#000D44"/>
<path d="M27.7993 11.7319V9.36451C27.7993 8.87912 27.4058 8.4856 26.9204 8.4856C26.435 8.4856 26.0415 8.87912 26.0415 9.36451V11.7319C26.0415 12.2173 26.435 12.6108 26.9204 12.6108C27.4058 12.6108 27.7993 12.2173 27.7993 11.7319Z" fill="#000D44"/>
<path d="M18.872 14.7678C19.0211 14.7678 19.1723 14.7297 19.3107 14.6499C19.731 14.4072 19.875 13.8697 19.6323 13.4494L18.4486 11.3992C18.2058 10.9789 17.6682 10.835 17.2482 11.0775C16.8278 11.3202 16.6838 11.8578 16.9265 12.278L18.1102 14.3282C18.2729 14.61 18.5683 14.7678 18.872 14.7678Z" fill="#000D44"/>
<path d="M12.9781 20.6602C13.2818 20.6602 13.5772 20.5026 13.74 20.2206C13.9827 19.8003 13.8387 19.2629 13.4184 19.0202L11.3682 17.8365C10.9478 17.5937 10.4103 17.7377 10.1677 18.1581C9.92501 18.5785 10.069 19.1159 10.4894 19.3586L12.5396 20.5423C12.678 20.6222 12.829 20.6602 12.9781 20.6602Z" fill="#000D44"/>
<path d="M8.45459 26.9514C7.9692 26.9514 7.57568 27.3449 7.57568 27.8303C7.57568 28.3157 7.9692 28.7092 8.45459 28.7092H10.822C11.3074 28.7092 11.7009 28.3157 11.7009 27.8303C11.7009 27.3449 11.3074 26.9514 10.822 26.9514H8.45459Z" fill="#000D44"/>
<path d="M40.8631 20.6601C41.0122 20.6601 41.1634 20.622 41.3018 20.5422L43.352 19.3585C43.7723 19.1158 43.9163 18.5782 43.6736 18.158C43.4309 17.7375 42.8932 17.5939 42.4732 17.8363L40.423 19.02C40.0026 19.2627 39.8586 19.8003 40.1013 20.2205C40.2641 20.5025 40.5595 20.6601 40.8631 20.6601Z" fill="#000D44"/>
<path d="M36.5929 11.0774C36.1725 10.8346 35.635 10.9787 35.3924 11.3991L34.2087 13.4493C33.966 13.8696 34.11 14.4072 34.5304 14.6497C34.6688 14.7297 34.82 14.7676 34.969 14.7676C35.2728 14.7676 35.5681 14.6099 35.731 14.328L36.9147 12.2779C37.1573 11.8576 37.0132 11.3201 36.5929 11.0774Z" fill="#000D44"/>
<path d="M30.3563 32.4727C30.4257 32.4894 30.4951 32.4974 30.5634 32.4974C30.9599 32.4974 31.3197 32.2272 31.417 31.8246L33.2464 24.2489C33.3603 23.777 33.0703 23.3022 32.5983 23.1883C32.1268 23.0745 31.6517 23.3644 31.5378 23.8363L29.7084 31.412C29.5944 31.8839 29.8845 32.3588 30.3563 32.4727Z" fill="#000D44"/>
<path d="M35.1948 24.0426C35.1948 24.528 35.5883 24.9215 36.0737 24.9215H38.895L36.1067 31.2647C35.9113 31.7091 36.1132 32.2277 36.5575 32.4229C36.6726 32.4735 36.7926 32.4974 36.9107 32.4974C37.2487 32.4974 37.5709 32.3012 37.7156 31.9719L41.0459 24.3962C41.1653 24.1245 41.1395 23.8108 40.9773 23.5622C40.8151 23.3137 40.5382 23.1638 40.2414 23.1638H36.0737C35.5883 23.1638 35.1948 23.5573 35.1948 24.0426Z" fill="#000D44"/>
<path d="M25.7727 23.5338L21.982 28.8736C21.7917 29.1416 21.767 29.4935 21.9178 29.7855C22.0686 30.0777 22.3699 30.2611 22.6986 30.2611H25.5949L25.5915 31.616C25.5904 32.1014 25.9828 32.4959 26.4682 32.497H26.4704C26.9548 32.497 27.348 32.105 27.3492 31.6203L27.3526 30.2611H27.456C27.9414 30.2611 28.3349 29.8676 28.3349 29.3822C28.3349 28.8968 27.9414 28.5033 27.456 28.5033H27.3571L27.3682 24.0445C27.3691 23.6617 27.1221 23.3222 26.7573 23.2053C26.3927 23.0889 25.9944 23.2215 25.7727 23.5338ZM25.5994 28.5035H24.4004L25.6036 26.8085L25.5994 28.5035Z" fill="#000D44"/>
<path d="M20.5973 31.6184C20.5973 31.133 20.2038 30.7395 19.7184 30.7395H17.9387C18.3279 30.1865 18.8663 29.4194 19.6098 28.3569C19.6132 28.352 19.6166 28.3472 19.6199 28.3423C20.2102 27.4611 20.5972 26.8184 20.5972 25.9483C20.5972 24.4129 19.3481 23.1638 17.8127 23.1638C16.4852 23.1638 15.3362 24.1082 15.0806 25.4094C14.9871 25.8857 15.2973 26.3477 15.7736 26.4412C16.2493 26.5343 16.7119 26.2245 16.8054 25.7481C16.8995 25.2691 17.3231 24.9214 17.8128 24.9214C18.379 24.9214 18.8396 25.3819 18.8396 25.9482C18.8396 26.2873 18.6627 26.6128 18.1647 27.3564C15.8619 30.6467 15.5447 31.0793 15.5332 31.0949C15.3355 31.3616 15.3049 31.7169 15.4542 32.0135C15.6035 32.3102 15.9071 32.4972 16.2391 32.4972H19.7184C20.2039 32.4972 20.5973 32.1038 20.5973 31.6184Z" fill="#000D44"/>
</g>
</g>
<defs>
<clipPath id="clip0_5_117">
<rect width="60" height="60" fill="white" transform="translate(0 0.909912)"/>
</clipPath>
</defs>
</svg>
