<svg width="24" height="18" viewBox="0 0 24 18" fill="none" xmlns="http://www.w3.org/2000/svg">
<path d="M21.75 0C22.9688 0 24 1.03125 24 2.25V15.75C24 17.0156 22.9688 18 21.75 18H2.25C0.984375 18 0 17.0156 0 15.75V2.25C0 1.03125 0.984375 0 2.25 0H21.75ZM21.75 2.25H2.25V4.17188C3.28125 5.0625 4.96875 6.375 8.53125 9.1875C9.32812 9.79688 10.875 11.2969 12 11.25C13.0781 11.2969 14.625 9.79688 15.4219 9.1875C18.9844 6.375 20.6719 5.0625 21.75 4.17188V2.25ZM2.25 15.75H21.75V7.07812C20.6719 7.92188 19.125 9.14062 16.8281 10.9688C15.75 11.7656 13.9688 13.5469 12 13.5C9.98438 13.5469 8.15625 11.7656 7.125 10.9688C4.82812 9.14062 3.28125 7.92188 2.25 7.07812V15.75Z" fill="#04CE78"/>
</svg>
