<svg width="22" height="24" viewBox="0 0 22 24" fill="none" xmlns="http://www.w3.org/2000/svg">
<path d="M7.20752 13.5H5.33252C5.00439 13.5 4.77002 13.2656 4.77002 12.9375V11.0625C4.77002 10.7812 5.00439 10.5 5.33252 10.5H7.20752C7.48877 10.5 7.77002 10.7812 7.77002 11.0625V12.9375C7.77002 13.2656 7.48877 13.5 7.20752 13.5ZM12.27 12.9375C12.27 13.2656 11.9888 13.5 11.7075 13.5H9.83252C9.50439 13.5 9.27002 13.2656 9.27002 12.9375V11.0625C9.27002 10.7812 9.50439 10.5 9.83252 10.5H11.7075C11.9888 10.5 12.27 10.7812 12.27 11.0625V12.9375ZM16.77 12.9375C16.77 13.2656 16.4888 13.5 16.2075 13.5H14.3325C14.0044 13.5 13.77 13.2656 13.77 12.9375V11.0625C13.77 10.7812 14.0044 10.5 14.3325 10.5H16.2075C16.4888 10.5 16.77 10.7812 16.77 11.0625V12.9375ZM12.27 17.4375C12.27 17.7656 11.9888 18 11.7075 18H9.83252C9.50439 18 9.27002 17.7656 9.27002 17.4375V15.5625C9.27002 15.2812 9.50439 15 9.83252 15H11.7075C11.9888 15 12.27 15.2812 12.27 15.5625V17.4375ZM7.77002 17.4375C7.77002 17.7656 7.48877 18 7.20752 18H5.33252C5.00439 18 4.77002 17.7656 4.77002 17.4375V15.5625C4.77002 15.2812 5.00439 15 5.33252 15H7.20752C7.48877 15 7.77002 15.2812 7.77002 15.5625V17.4375ZM16.77 17.4375C16.77 17.7656 16.4888 18 16.2075 18H14.3325C14.0044 18 13.77 17.7656 13.77 17.4375V15.5625C13.77 15.2812 14.0044 15 14.3325 15H16.2075C16.4888 15 16.77 15.2812 16.77 15.5625V17.4375ZM21.27 5.25V21.75C21.27 23.0156 20.2388 24 19.02 24H2.52002C1.25439 24 0.27002 23.0156 0.27002 21.75V5.25C0.27002 4.03125 1.25439 3 2.52002 3H4.77002V0.5625C4.77002 0.28125 5.00439 0 5.33252 0H7.20752C7.48877 0 7.77002 0.28125 7.77002 0.5625V3H13.77V0.5625C13.77 0.28125 14.0044 0 14.3325 0H16.2075C16.4888 0 16.77 0.28125 16.77 0.5625V3H19.02C20.2388 3 21.27 4.03125 21.27 5.25ZM19.02 21.4688V7.5H2.52002V21.4688C2.52002 21.6562 2.61377 21.75 2.80127 21.75H18.7388C18.8794 21.75 19.02 21.6562 19.02 21.4688Z" fill="#04CE78"/>
</svg>
